<svg xmlns="http://www.w3.org/2000/svg" id="Ebene_1" data-name="Ebene 1" viewBox="0 0 193.79 39.51"><defs><style>.cls-1{fill:#89b2aa;}.cls-2{fill:#fff;}</style></defs><polygon class="cls-1" points="25.68 27.47 19.67 39.51 0 0 11.99 0 25.68 27.47"></polygon><circle class="cls-1" cx="31.89" cy="7.58" r="7.58"></circle><path class="cls-2" d="M109.78,125.92l-9,23.7h-3.6l-9-23.7h3.33L99,146.36l7.52-20.44Z" transform="translate(-39.41 -119.52)"></path><path class="cls-2" d="M117,148.74a8.56,8.56,0,0,1-3.36-3.39,10.29,10.29,0,0,1-1.22-5.08,10,10,0,0,1,1.25-5.05,8.72,8.72,0,0,1,3.42-3.37,10.6,10.6,0,0,1,9.68,0,8.67,8.67,0,0,1,3.42,3.35,10.81,10.81,0,0,1,0,10.15,9,9,0,0,1-3.49,3.39,10.12,10.12,0,0,1-4.88,1.18A9.74,9.74,0,0,1,117,148.74Zm7.95-2.32a6,6,0,0,0,2.39-2.34,7.41,7.41,0,0,0,.91-3.81,7.61,7.61,0,0,0-.89-3.81,5.89,5.89,0,0,0-2.34-2.33,6.83,6.83,0,0,0-6.26,0,5.6,5.6,0,0,0-2.29,2.33,7.83,7.83,0,0,0-.86,3.81,8,8,0,0,0,.84,3.84,5.57,5.57,0,0,0,2.25,2.33,6.38,6.38,0,0,0,3.09.77A6.53,6.53,0,0,0,125,146.42Z" transform="translate(-39.41 -119.52)"></path><path class="cls-2" d="M139.08,124.46v25.16H136V124.46Z" transform="translate(-39.41 -119.52)"></path><path class="cls-2" d="M148.59,133.54v11a2.58,2.58,0,0,0,.58,1.92,2.93,2.93,0,0,0,2,.56h2.3v2.62h-2.82a5.64,5.64,0,0,1-3.91-1.19,5.08,5.08,0,0,1-1.31-3.91v-11H143V131h2.44v-4.7h3.13V131h4.91v2.55Z" transform="translate(-39.41 -119.52)"></path><path class="cls-2" d="M165.31,133.54h-3.95v16.08h-3.12V133.54H155.8V131h2.44v-1.33a5.8,5.8,0,0,1,1.63-4.57c1.09-1,2.83-1.45,5.24-1.45v2.59a4.15,4.15,0,0,0-2.91.8,3.5,3.5,0,0,0-.84,2.63V131h3.95Z" transform="translate(-39.41 -119.52)"></path><path class="cls-2" d="M169.33,135.22a8.42,8.42,0,0,1,3.21-3.35,8.9,8.9,0,0,1,4.55-1.19,8.42,8.42,0,0,1,4.29,1,7.1,7.1,0,0,1,2.72,2.66V131h3.15v18.63H184.1v-3.47a7.27,7.27,0,0,1-2.77,2.7,8.26,8.26,0,0,1-4.27,1.07,8.56,8.56,0,0,1-4.54-1.22,8.66,8.66,0,0,1-3.19-3.43,10.62,10.62,0,0,1-1.17-5A10.36,10.36,0,0,1,169.33,135.22Zm13.91,1.38a6,6,0,0,0-2.32-2.4,6.3,6.3,0,0,0-3.21-.83,6.45,6.45,0,0,0-3.2.81,6.06,6.06,0,0,0-2.3,2.38,7.56,7.56,0,0,0-.85,3.67,7.75,7.75,0,0,0,.85,3.73,6.08,6.08,0,0,0,2.3,2.41,6.53,6.53,0,0,0,6.41,0,6,6,0,0,0,2.32-2.41,7.67,7.67,0,0,0,.86-3.69A7.51,7.51,0,0,0,183.24,136.6Z" transform="translate(-39.41 -119.52)"></path><path class="cls-2" d="M207.65,132.7a7.89,7.89,0,0,1,2.13,5.94v11h-3.09V139.08a6,6,0,0,0-1.41-4.27,5.08,5.08,0,0,0-3.84-1.48,5.17,5.17,0,0,0-3.93,1.53,6.2,6.2,0,0,0-1.46,4.46v10.3h-3.13V131h3.13v2.65a6.22,6.22,0,0,1,2.52-2.21,7.9,7.9,0,0,1,3.52-.78A7.66,7.66,0,0,1,207.65,132.7Z" transform="translate(-39.41 -119.52)"></path><path class="cls-2" d="M227.31,131.73a7,7,0,0,1,2.73,2.66V131h3.16v19a9.16,9.16,0,0,1-1.1,4.54,7.83,7.83,0,0,1-3.14,3.11,9.81,9.81,0,0,1-4.75,1.12,10.56,10.56,0,0,1-6.19-1.73,6.78,6.78,0,0,1-2.91-4.73h3.09a4.89,4.89,0,0,0,2.13,2.74,7,7,0,0,0,3.88,1,5.77,5.77,0,0,0,4.2-1.59A6,6,0,0,0,230,150v-3.91a7.52,7.52,0,0,1-2.74,2.72,8.22,8.22,0,0,1-4.26,1.08,8.64,8.64,0,0,1-4.55-1.22,8.5,8.5,0,0,1-3.21-3.43,10.62,10.62,0,0,1-1.17-5,10.36,10.36,0,0,1,1.17-5,8.29,8.29,0,0,1,3.21-3.35,8.9,8.9,0,0,1,4.55-1.19A8.45,8.45,0,0,1,227.31,131.73Zm1.87,4.87a6,6,0,0,0-2.31-2.4,6.35,6.35,0,0,0-3.21-.83,6.42,6.42,0,0,0-3.2.81,6,6,0,0,0-2.3,2.38,7.57,7.57,0,0,0-.86,3.67,7.75,7.75,0,0,0,.86,3.73,6,6,0,0,0,2.3,2.41,6.24,6.24,0,0,0,3.2.84,6.36,6.36,0,0,0,3.21-.84,6,6,0,0,0,2.31-2.41,7.56,7.56,0,0,0,.86-3.69A7.4,7.4,0,0,0,229.18,136.6Z" transform="translate(-39.41 -119.52)"></path></svg>