<svg width="123" height="123" xmlns="http://www.w3.org/2000/svg" xmlns:xlink="http://www.w3.org/1999/xlink" xml:space="preserve" overflow="hidden"><g transform="translate(-28 -28)"><path d="M55.1379 122.85C52.8675 122.576 49.0254 121.902 46.7799 121.353 45.4077 121.004 44.0105 120.68 43.6862 120.605 41.2661 120.081 34.5049 117.162 30.8373 115.041 22.2797 110.101 14.8199 102.991 9.25619 94.4331 4.93996 87.7966 1.17262 77.5174 0.299391 70.0327 0.0748479 67.9868 0.0997972 54.2897 0.324341 53.0172 0.424138 52.4684 0.573834 51.5702 0.623732 51.0213 0.848276 49.1252 2.22049 43.9357 3.36815 40.7422 9.45578 23.8266 23.0531 10.0546 39.9189 3.79229 44.5594 2.07079 50.8467 0.449087 52.6679 0.523935 52.9923 0.523935 54.3396 0.399189 55.6369 0.249493 57.8325-0.0249493 66.4649 0.0249493 68.4858 0.324341 68.9099 0.399189 69.9329 0.523935 70.8061 0.598783 71.6793 0.69858 74.0744 1.19757 76.1702 1.7215 85.8505 4.21643 94.0838 8.50771 101.594 14.9446 113.27 24.9992 120.48 38.5716 122.551 54.3895 122.925 57.3834 122.925 66.0657 122.526 68.86 120.879 80.3118 117.087 89.8424 110.875 98.0507 102.117 109.677 90.1667 117.786 76.8937 121.129 71.0556 122.601 69.3341 122.8 62.3732 122.875 58.8803 122.925 55.612 122.9 55.1379 122.85ZM71.2302 110.5C76.3947 109.453 82.2329 107.207 86.8235 104.488 90.3663 102.417 93.0858 100.271 96.454 96.928 102.242 91.1398 106.184 84.8525 108.754 77.2181 112.022 67.4379 112.072 55.9114 108.854 46.2061 107.057 40.7921 104.488 35.8272 101.095 31.2615 98.9738 28.4172 94.2584 23.7268 91.5639 21.7308 89.543 20.2339 84.7028 17.24 83.7548 16.8907 83.5053 16.7909 84.4533 17.8886 85.9004 19.3108 89.8424 23.2527 91.9381 26.7207 93.2355 31.5609 93.8343 33.7813 93.8842 34.5049 93.9091 38.4219 93.9341 41.9398 93.8343 43.1373 93.46 44.5345 91.8882 50.5223 88.3704 55.5621 82.9564 59.6288 76.744 64.2943 73.0765 66.2404 58.1318 72.8769 48.1521 77.3178 42.9128 81.8337 40.9917 87.6968 40.4428 89.3434 40.343 90.1667 40.3181 92.4371 40.3181 93.959 40.4677 95.8053 40.6424 96.5537 41.0665 98.3751 42.9627 102.217 43.9856 103.29 47.8527 107.407 54.0651 110.451 59.8783 111.024 62.972 111.349 68.3361 111.099 71.2302 110.5ZM36.9 103.864C34.0059 100.895 32.7085 99.1485 31.2864 96.3292 28.5919 90.9402 27.8434 84.5781 29.2156 78.5903 29.8144 76.0205 31.9101 71.6544 33.6566 69.3341 35.7773 66.5398 39.3949 63.3213 43.2371 60.7765 47.0544 58.2316 48.7509 57.3834 60.7515 51.8945 65.0179 49.9485 69.4838 47.7779 70.6813 47.1043 76.769 43.6363 80.4116 39.7442 81.8836 35.1036 82.5322 33.0329 82.5821 28.6917 81.9834 26.5959 81.0353 23.3775 78.4905 19.3357 75.9207 16.9655 71.7791 13.1732 63.6456 11.1523 55.7617 11.9507 52.4185 12.3 46.3059 13.772 43.3619 14.9446 35.5028 18.0633 28.2176 23.2777 23.103 29.4152 19.6101 33.6316 15.7929 40.3181 14.3458 44.784 13.9966 45.8817 13.6223 46.9546 13.5475 47.1542 13.4726 47.3538 13.3728 47.6531 13.3479 47.7779 11.7511 54.614 11.3519 58.1069 11.5515 63.4959 12.1753 79.4385 20.159 93.9341 33.2824 102.866 34.7045 103.839 38.9209 106.284 39.1454 106.284 39.2203 106.284 38.1974 105.186 36.9 103.864Z" fill="#03693A" transform="matrix(1 0 0 -1 28 151)"/></g></svg>