<?xml version="1.0" standalone="no"?>
<!DOCTYPE svg PUBLIC "-//W3C//DTD SVG 20010904//EN"
 "http://www.w3.org/TR/2001/REC-SVG-20010904/DTD/svg10.dtd">
<svg version="1.0" xmlns="http://www.w3.org/2000/svg"
 width="700.000000pt" height="700.000000pt" viewBox="0 0 700.000000 700.000000"
 preserveAspectRatio="xMidYMid meet">
<metadata>
Created by potrace 1.14, written by Peter Selinger 2001-2017
</metadata>
<g transform="translate(0.000000,700.000000) scale(0.100000,-0.100000)"
fill="#000000" stroke="none">
<path d="M3150 6992 c-43 -3 -317 -48 -385 -63 -117 -25 -379 -91 -394 -99 -9
-4 -70 -30 -136 -56 -481 -190 -883 -456 -1239 -818 -390 -398 -641 -803 -821
-1326 -68 -199 -135 -461 -153 -599 -17 -138 -7 -1056 13 -1131 2 -8 7 -31 10
-50 3 -19 8 -42 10 -50 2 -8 7 -28 9 -45 7 -42 61 -231 97 -344 205 -637 613
-1218 1163 -1659 86 -69 349 -252 362 -252 3 0 18 -8 32 -19 49 -34 275 -149
397 -202 299 -128 696 -238 920 -253 44 -3 109 -9 145 -13 106 -11 607 -7 715
6 153 18 157 19 200 26 183 29 693 183 750 225 6 4 21 11 35 15 30 9 342 163
350 173 3 4 21 16 40 26 106 58 322 209 450 315 30 25 68 57 85 71 53 44 289
283 351 355 375 435 645 986 765 1565 33 160 49 251 56 340 16 175 7 819 -11
849 -2 3 -12 49 -21 101 -9 52 -18 100 -19 105 -2 6 -6 28 -11 50 -47 244
-165 588 -282 820 -72 144 -131 247 -206 360 -164 247 -390 505 -635 725 -80
72 -336 270 -348 270 -3 0 -23 14 -44 30 -21 17 -40 30 -42 30 -3 0 -56 31
-119 68 -173 104 -382 200 -584 271 -107 38 -410 121 -490 134 -16 3 -55 10
-85 16 -120 23 -294 32 -630 34 -146 1 -281 1 -300 -1z m710 -676 c369 -38
822 -201 1168 -422 162 -104 279 -201 458 -379 283 -282 453 -530 618 -897 56
-125 134 -368 162 -503 21 -103 44 -251 52 -339 9 -109 9 -462 -1 -561 -54
-529 -262 -1045 -596 -1475 -84 -109 -361 -387 -471 -472 -76 -59 -246 -173
-325 -218 -126 -73 -155 -88 -155 -82 0 4 39 48 86 97 239 248 342 403 417
627 60 178 69 246 70 498 0 245 -7 297 -54 442 -99 297 -289 549 -584 772
-270 204 -528 350 -990 560 -71 33 -161 74 -200 91 -38 18 -128 58 -200 90
-71 32 -159 74 -195 93 -36 19 -87 46 -115 60 -63 33 -269 167 -309 201 -82
69 -183 172 -226 231 -84 114 -153 271 -167 385 -16 122 -5 332 22 420 31 102
134 293 193 357 199 215 572 395 877 424 39 4 71 8 73 9 6 5 327 -3 392 -9z
m-1690 -333 c-108 -111 -128 -133 -182 -195 -88 -102 -138 -174 -198 -292
-156 -305 -202 -636 -136 -977 35 -182 161 -446 290 -608 121 -152 378 -367
608 -510 103 -65 309 -173 468 -245 47 -22 126 -58 175 -81 50 -23 200 -93
335 -155 428 -197 605 -295 756 -416 217 -173 363 -393 392 -589 14 -98 7
-335 -12 -400 -48 -162 -182 -381 -311 -510 -105 -104 -121 -115 -240 -174
-230 -113 -480 -163 -785 -156 -205 5 -303 20 -580 90 -335 84 -620 221 -945
454 -165 118 -394 334 -514 486 -161 202 -351 526 -438 745 -68 172 -133 418
-168 635 -33 205 -38 535 -11 745 11 83 18 136 22 154 2 12 7 37 10 56 3 19 7
43 10 52 3 10 8 30 10 45 9 51 73 267 102 349 89 243 227 501 382 709 121 163
264 319 410 445 41 36 77 67 80 70 48 53 480 330 514 330 6 0 -14 -25 -44 -57z"/>
</g>
</svg>
